# Export of testSculptorVR
v -0.64 0.32 -1.080234
v -0.6403125 0.32 -1.08
v -0.64 0.3201562 -1.08
v -0.6410937 0.32 -1.07
v -0.64 0.3201953 -1.07
v -0.65 0.32 -1.067109
v -0.66 0.32 -1.068516
v -0.67 0.32 -1.068633
v -0.68 0.32 -1.067305
v -0.69 0.32 -1.062852
v -0.6927734 0.32 -1.06
v -0.64 0.3232031 -1.06
v -0.6497656 0.33 -1.06
v -0.65 0.33 -1.060117
v -0.66 0.33 -1.062539
v -0.67 0.33 -1.065117
v -0.68 0.33 -1.061641
v -0.6845703 0.33 -1.06
v -0.69 0.3245703 -1.06
v -0.65 0.3301172 -1.06
v -0.66 0.3373438 -1.06
v -0.67 0.3386328 -1.06
v -0.68 0.3345703 -1.06
v -0.6969141 0.32 -1.05
v -0.64 0.33 -1.05543
v -0.69 0.33 -1.054609
v -0.6915234 0.33 -1.05
v -0.64 0.34 -1.052617
v -0.65 0.34 -1.054258
v -0.66 0.34 -1.05875
v -0.67 0.34 -1.058672
v -0.68 0.34 -1.054609
v -0.6845703 0.34 -1.05
v -0.69 0.3345703 -1.05
v -0.64 0.3446094 -1.05
v -0.65 0.3485547 -1.05
v -0.66 0.3463281 -1.05
v -0.67 0.3458594 -1.05
v -0.68 0.3415234 -1.05
v -0.6971093 0.32 -1.04
v -0.6948828 0.33 -1.04
v -0.6881641 0.34 -1.04
v -0.69 0.3381641 -1.04
v -0.64 0.35 -1.046133
v -0.65 0.35 -1.048359
v -0.66 0.35 -1.044023
v -0.663789 0.35 -1.04
v -0.67 0.3471094 -1.04
v -0.68 0.3455469 -1.04
v -0.64 0.355664 -1.04
v -0.65 0.3541797 -1.04
v -0.66 0.3521875 -1.04
v -0.6943359 0.32 -1.03
v -0.6915234 0.33 -1.03
v -0.6857422 0.34 -1.03
v -0.69 0.3345703 -1.03
v -0.668789 0.35 -1.03
v -0.67 0.3495312 -1.03
v -0.68 0.3427344 -1.03
v -0.64 0.36 -1.033828
v -0.6437891 0.36 -1.03
v -0.65 0.3557031 -1.03
v -0.66 0.3533984 -1.03
v -0.64 0.3621875 -1.03
v -0.6850781 0.32 -1.02
v -0.69 0.32 -1.024766
v -0.6857422 0.33 -1.02
v -0.69 0.33 -1.02543
v -0.6778516 0.34 -1.02
v -0.68 0.3365625 -1.02
v -0.68 0.34 -1.023438
v -0.6646875 0.35 -1.02
v -0.67 0.3457422 -1.02
v -0.648125 0.36 -1.02
v -0.65 0.3592187 -1.02
v -0.66 0.3532031 -1.02
v -0.64 0.3622265 -1.02
v -0.6619922 0.32 -1.01
v -0.67 0.32 -1.013086
v -0.68 0.32 -1.016836
v -0.6684375 0.33 -1.01
v -0.67 0.33 -1.010469
v -0.68 0.33 -1.017266
v -0.6620703 0.34 -1.01
v -0.67 0.34 -1.014258
v -0.6530468 0.35 -1.01
v -0.66 0.3421484 -1.01
v -0.66 0.35 -1.015156
v -0.640664 0.36 -1.01
v -0.65 0.3527344 -1.01
v -0.64 0.3603125 -1.01
v -0.6542187 0.32 -1
v -0.66 0.32 -1.009023
v -0.6492187 0.33 -1
v -0.65 0.3286719 -1
v -0.65 0.33 -1.001055
v -0.66 0.33 -1.006875
v -0.6472266 0.34 -1
v -0.65 0.34 -1.002656
v -0.66 0.34 -1.008594
v -0.6432812 0.35 -1
v -0.65 0.35 -1.007305
v -0.64 0.3532812 -1
v -0.64 0.36 -1.009375
v -0.6534765 0.32 -0.99
v -0.65 0.33 -0.9958984
v -0.6508203 0.33 -0.99
v -0.6409375 0.34 -0.99
v -0.65 0.3311719 -0.99
v -0.64 0.3421484 -0.99
v -0.64 0.35 -0.9958203
v -0.6551953 0.32 -0.98
v -0.6483203 0.33 -0.98
v -0.65 0.3289062 -0.98
v -0.65 0.33 -0.9852734
v -0.64 0.3383203 -0.98
v -0.64 0.34 -0.9858203
v -0.6524218 0.32 -0.97
v -0.6475781 0.33 -0.97
v -0.65 0.3265625 -0.97
v -0.64 0.3344141 -0.97
v -0.6479687 0.32 -0.96
v -0.65 0.32 -0.9629297
v -0.64 0.3267578 -0.96
v -0.64 0.33 -0.9632422
vn -0.135847 0.3033918 -0.1381114
vn -0.135847 0.3033918 -0.1381114
vn -0.135847 0.3033918 -0.1381114
vn -0.1222623 0.3894284 -0.06565956
vn -0.135847 0.3939566 -0.04754661
vn 0.009056405 0.3215049 -0.246789
vn 0.01811288 0.2988637 -0.2603737
vn -0.01811288 0.2852789 -0.2739585
vn -0.0815082 0.267166 -0.2286761
vn -0.1494318 0.2626377 -0.1652808
vn -0.172073 0.267166 -0.1381113
vn 0.09056468 0.2535813 -0.2332043
vn 0.1132059 0.1766013 -0.2875431
vn 0.1132059 0.1766013 -0.2875431
vn 0.1132059 0.1358471 -0.3282973
vn -0.01358464 0.15396 -0.4098056
vn -0.1494318 0.1177341 -0.3101844
vn -0.1766012 0.1449036 -0.2558455
vn -0.1856577 0.2037706 -0.1879219
vn 0.1132059 0.1766013 -0.2875431
vn 0.09962115 0.1766013 -0.3011278
vn -0.01811288 0.267166 -0.2920714
vn -0.1630165 0.15396 -0.2603737
vn -0.2264118 0.3033918 -0.04754659
vn 0.1177341 0.1539601 -0.3056561
vn -0.2581095 0.1449036 -0.1743372
vn -0.3169765 0.1132059 -0.1471678
vn 0.1041494 0.1494319 -0.323769
vn 0.09509291 0.1675448 -0.3147126
vn 0.08603644 0.2082989 -0.2830149
vn -0.02264112 0.2852789 -0.2694302
vn -0.15396 0.2535812 -0.169809
vn -0.172073 0.2535812 -0.151696
vn -0.267166 0.1494318 -0.1607525
vn 0.1041494 0.1856578 -0.2875431
vn 0.004528168 0.2716942 -0.3011278
vn -0.03622583 0.3215048 -0.2196196
vn -0.09056468 0.3532025 -0.1335831
vn -0.1449036 0.2943354 -0.1381113
vn -0.2649019 0.2739584 0.03848991
vn -0.4279185 0.1471678 0.002264033
vn -0.2762224 0.2988636 -0.002264222
vn -0.3079201 0.267166 -0.002264222
vn 0.06792349 0.2490531 -0.2603737
vn -0.01811288 0.2988636 -0.2603738
vn -0.1132059 0.3124483 -0.1516961
vn -0.1403753 0.3305613 -0.1064137
vn -0.1313188 0.3667872 -0.07924427
vn -0.15396 0.3894284 -0.03396186
vn -0.05886701 0.2943354 -0.2241479
vn -0.0815082 0.3713154 -0.1245266
vn -0.135847 0.3215048 -0.1199984
vn -0.2649019 0.1562242 0.1562241
vn -0.3328255 0.08830067 0.1562241
vn -0.1969784 0.2332043 0.1471676
vn -0.2830149 0.1381113 0.1562241
vn -0.1947142 0.3758437 -0.006792441
vn -0.2037706 0.3713154 -0.002264205
vn -0.1788654 0.2739584 0.1245264
vn -0.1177341 0.3079201 -0.1516961
vn -0.1494318 0.3169765 -0.1109419
vn -0.1494318 0.3486742 -0.07924425
vn -0.1313188 0.4165978 -0.02943366
vn -0.1313188 0.326033 -0.1199984
vn -0.2377325 -0.03396175 0.305656
vn -0.2875431 0.05207476 0.2377324
vn -0.2150913 0.1109419 0.2513171
vn -0.2830149 0.1064136 0.1879218
vn -0.2196196 0.1788654 0.1788653
vn -0.2241478 0.1426395 0.2105629
vn -0.2105631 0.2060348 0.1607523
vn -0.1833937 0.2739584 0.1199982
vn -0.1833937 0.2377325 0.1562241
vn -0.2015066 0.3645231 0.01132051
vn -0.2150913 0.3554667 0.00679227
vn -0.1833937 0.2875431 0.1064135
vn -0.1290548 0.4098055 0.03848993
vn -0.1698089 -0.07471588 0.3328254
vn -0.133583 -0.09735707 0.3464101
vn -0.1924501 -0.02490527 0.3599949
vn -0.1788654 0.01584887 0.382636
vn -0.1833937 0.0203771 0.3735795
vn -0.2015066 0.07018772 0.3056559
vn -0.1698089 0.1199983 0.287543
vn -0.1788654 0.1652807 0.2332041
vn -0.1788654 0.1879219 0.210563
vn -0.1652807 0.1381113 0.2739583
vn -0.1698089 0.2422608 0.1652806
vn -0.1788654 0.2694302 0.1290547
vn -0.1833937 0.2060348 0.1879218
vn -0.1788654 0.2739584 0.1245264
vn -0.3781079 0.1018854 0.09735702
vn -0.1969784 -0.06565941 0.3147125
vn -0.323769 0.1426395 0.1109417
vn -0.3282973 0.1471678 0.1018852
vn -0.3101843 0.133583 0.1335829
vn -0.1743372 -0.006792322 0.3962207
vn -0.2377325 0.09735714 0.2422606
vn -0.2196196 0.08377243 0.2739583
vn -0.1698089 0.1109419 0.2965994
vn -0.2377325 0.1562242 0.1833935
vn -0.1924501 0.1698089 0.2150912
vn -0.246789 0.1833937 0.1471676
vn -0.1833937 0.2649019 0.1290547
vn -0.3849002 0.1449036 -0.04754658
vn -0.3328255 0.1788654 0.06565935
vn -0.3509384 0.2150913 0.01132051
vn -0.2694302 0.1969784 0.1109417
vn -0.3373537 0.2241478 0.01584873
vn -0.2739584 0.1833937 0.1199982
vn -0.2558455 0.1607525 0.1607523
vn -0.436975 0.1199983 0.02037695
vn -0.2513172 0.2784866 0.04754639
vn -0.2649019 0.2739584 0.03848991
vn -0.3011278 0.2513172 0.0249052
vn -0.2241478 0.2422608 0.1109417
vn -0.2513172 0.2105631 0.11547
vn -0.2784866 0.1562242 0.1426394
vn -0.2241478 0.2105631 0.1426394
vn -0.2422608 0.1924501 0.1426394
vn -0.228676 0.2422608 0.1064135
vn -0.2196196 0.1471678 0.2105629
vn -0.228676 0.1562242 0.19245
vn -0.2784866 0.1381113 0.1607523
vn -0.2694302 0.1698089 0.1381111
vt 0 0
vt 0 0
vt 0 0
vt 0 0
vt 0 0
vt 0 0
vt 0 0
vt 0 0
vt 0 0
vt 0 0
vt 0 0
vt 0 0
vt 0 0
vt 0 0
vt 0 0
vt 0 0
vt 0 0
vt 0 0
vt 0 0
vt 0 0
vt 0 0
vt 0 0
vt 0 0
vt 0 0
vt 0 0
vt 0 0
vt 0 0
vt 0 0
vt 0 0
vt 0 0
vt 0 0
vt 0 0
vt 0 0
vt 0 0
vt 0 0
vt 0 0
vt 0 0
vt 0 0
vt 0 0
vt 0 0
vt 0 0
vt 0 0
vt 0 0
vt 0 0
vt 0 0
vt 0 0
vt 0 0
vt 0 0
vt 0 0
vt 0 0
vt 0 0
vt 0 0
vt 0 0
vt 0 0
vt 0 0
vt 0 0
vt 0 0
vt 0 0
vt 0 0
vt 0 0
vt 0 0
vt 0 0
vt 0 0
vt 0 0
vt 0 0
vt 0 0
vt 0 0
vt 0 0
vt 0 0
vt 0 0
vt 0 0
vt 0 0
vt 0 0
vt 0 0
vt 0 0
vt 0 0
vt 0 0
vt 0 0
vt 0 0
vt 0 0
vt 0 0
vt 0 0
vt 0 0
vt 0 0
vt 0 0
vt 0 0
vt 0 0
vt 0 0
vt 0 0
vt 0 0
vt 0 0
vt 0 0
vt 0 0
vt 0 0
vt 0 0
vt 0 0
vt 0 0
vt 0 0
vt 0 0
vt 0 0
vt 0 0
vt 0 0
vt 0 0
vt 0 0
vt 0 0
vt 0 0
vt 0 0
vt 0 0
vt 0 0
vt 0 0
vt 0 0
vt 0 0
vt 0 0
vt 0 0
vt 0 0
vt 0 0
vt 0 0
vt 0 0
vt 0 0
vt 0 0
vt 0 0
vt 0 0
vt 0 0
vt 0 0
vt 0 0
usemtl OctreeNode (64, -96, -128)_sm0
f 3/3/3 1/1/1 2/2/2
f 3/3/3 2/2/2 4/4/4
f 3/3/3 4/4/4 5/5/5
f 12/12/12 5/5/5 4/4/4
f 14/14/14 12/12/12 4/4/4
f 6/6/6 14/14/14 4/4/4
f 12/12/12 14/14/14 13/13/13
f 15/15/15 6/6/6 7/7/7
f 14/14/14 6/6/6 15/15/15
f 16/16/16 7/7/7 8/8/8
f 15/15/15 7/7/7 16/16/16
f 17/17/17 8/8/8 9/9/9
f 16/16/16 8/8/8 17/17/17
f 10/10/10 19/19/19 18/18/18
f 17/17/17 10/10/10 18/18/18
f 9/9/9 10/10/10 17/17/17
f 19/19/19 10/10/10 11/11/11
f 20/20/20 13/13/13 14/14/14
f 20/20/20 14/14/14 15/15/15
f 20/20/20 15/15/15 21/21/21
f 21/21/21 15/15/15 16/16/16
f 21/21/21 16/16/16 22/22/22
f 22/22/22 16/16/16 17/17/17
f 22/22/22 17/17/17 23/23/23
f 23/23/23 17/17/17 18/18/18
f 13/13/13 25/25/25 12/12/12
f 26/26/26 18/18/18 19/19/19
f 27/27/27 26/26/26 19/19/19
f 11/11/11 27/27/27 19/19/19
f 24/24/24 27/27/27 11/11/11
f 20/20/20 29/29/29 13/13/13
f 29/29/29 25/25/25 13/13/13
f 29/29/29 28/28/28 25/25/25
f 21/21/21 30/30/30 20/20/20
f 20/20/20 30/30/30 29/29/29
f 22/22/22 31/31/31 21/21/21
f 21/21/21 31/31/31 30/30/30
f 23/23/23 32/32/32 22/22/22
f 22/22/22 32/32/32 31/31/31
f 33/33/33 32/32/32 23/23/23
f 33/33/33 23/23/23 18/18/18
f 34/34/34 33/33/33 18/18/18
f 26/26/26 34/34/34 18/18/18
f 34/34/34 26/26/26 27/27/27
f 35/35/35 28/28/28 29/29/29
f 35/35/35 29/29/29 36/36/36
f 36/36/36 29/29/29 30/30/30
f 36/36/36 30/30/30 37/37/37
f 37/37/37 30/30/30 31/31/31
f 37/37/37 31/31/31 38/38/38
f 38/38/38 31/31/31 32/32/32
f 38/38/38 32/32/32 39/39/39
f 39/39/39 32/32/32 33/33/33
f 40/40/40 27/27/27 24/24/24
f 41/41/41 27/27/27 40/40/40
f 43/43/43 42/42/42 34/34/34
f 34/34/34 42/42/42 33/33/33
f 34/34/34 27/27/27 41/41/41
f 34/34/34 41/41/41 43/43/43
f 36/36/36 45/45/45 35/35/35
f 35/35/35 45/45/45 44/44/44
f 37/37/37 46/46/46 36/36/36
f 36/36/36 46/46/46 45/45/45
f 46/46/46 37/37/37 47/47/47
f 37/37/37 48/48/48 47/47/47
f 37/37/37 38/38/38 48/48/48
f 49/49/49 38/38/38 39/39/39
f 49/49/49 48/48/48 38/38/38
f 39/39/39 33/33/33 42/42/42
f 39/39/39 42/42/42 49/49/49
f 50/50/50 44/44/44 45/45/45
f 50/50/50 45/45/45 51/51/51
f 51/51/51 45/45/45 46/46/46
f 51/51/51 46/46/46 52/52/52
f 52/52/52 46/46/46 47/47/47
f 53/53/53 41/41/41 40/40/40
f 54/54/54 41/41/41 53/53/53
f 56/56/56 55/55/55 43/43/43
f 43/43/43 55/55/55 42/42/42
f 43/43/43 41/41/41 54/54/54
f 43/43/43 54/54/54 56/56/56
f 58/58/58 57/57/57 48/48/48
f 48/48/48 57/57/57 47/47/47
f 59/59/59 48/48/48 49/49/49
f 59/59/59 58/58/58 48/48/48
f 49/49/49 42/42/42 55/55/55
f 49/49/49 55/55/55 59/59/59
f 60/60/60 50/50/50 61/61/61
f 50/50/50 62/62/62 61/61/61
f 50/50/50 51/51/51 62/62/62
f 63/63/63 51/51/51 52/52/52
f 63/63/63 62/62/62 51/51/51
f 52/52/52 47/47/47 57/57/57
f 52/52/52 57/57/57 63/63/63
f 64/64/64 60/60/60 61/61/61
f 66/66/66 65/65/65 68/68/68
f 68/68/68 65/65/65 67/67/67
f 68/68/68 54/54/54 53/53/53
f 68/68/68 53/53/53 66/66/66
f 70/70/70 69/69/69 71/71/71
f 70/70/70 71/71/71 67/67/67
f 67/67/67 71/71/71 68/68/68
f 71/71/71 55/55/55 68/68/68
f 55/55/55 56/56/56 68/68/68
f 68/68/68 56/56/56 54/54/54
f 73/73/73 72/72/72 58/58/58
f 58/58/58 72/72/72 57/57/57
f 59/59/59 71/71/71 69/69/69
f 73/73/73 59/59/59 69/69/69
f 58/58/58 59/59/59 73/73/73
f 71/71/71 59/59/59 55/55/55
f 75/75/75 74/74/74 62/62/62
f 62/62/62 74/74/74 61/61/61
f 76/76/76 62/62/62 63/63/63
f 76/76/76 75/75/75 62/62/62
f 63/63/63 57/57/57 72/72/72
f 63/63/63 72/72/72 76/76/76
f 64/64/64 61/61/61 74/74/74
f 64/64/64 74/74/74 77/77/77
f 79/79/79 78/78/78 82/82/82
f 82/82/82 78/78/78 81/81/81
f 79/79/79 83/83/83 80/80/80
f 79/79/79 82/82/82 83/83/83
f 83/83/83 67/67/67 65/65/65
f 83/83/83 65/65/65 80/80/80
f 82/82/82 81/81/81 85/85/85
f 85/85/85 81/81/81 84/84/84
f 85/85/85 69/69/69 70/70/70
f 83/83/83 85/85/85 70/70/70
f 82/82/82 85/85/85 83/83/83
f 83/83/83 70/70/70 67/67/67
f 87/87/87 86/86/86 88/88/88
f 87/87/87 88/88/88 84/84/84
f 84/84/84 88/88/88 85/85/85
f 88/88/88 72/72/72 85/85/85
f 72/72/72 73/73/73 85/85/85
f 85/85/85 73/73/73 69/69/69
f 90/90/90 89/89/89 75/75/75
f 75/75/75 89/89/89 74/74/74
f 76/76/76 88/88/88 86/86/86
f 90/90/90 76/76/76 86/86/86
f 75/75/75 76/76/76 90/90/90
f 88/88/88 76/76/76 72/72/72
f 77/77/77 74/74/74 89/89/89
f 77/77/77 89/89/89 91/91/91
f 95/95/95 94/94/94 96/96/96
f 95/95/95 96/96/96 92/92/92
f 96/96/96 93/93/93 92/92/92
f 96/96/96 97/97/97 93/93/93
f 97/97/97 81/81/81 78/78/78
f 97/97/97 78/78/78 93/93/93
f 96/96/96 94/94/94 99/99/99
f 99/99/99 94/94/94 98/98/98
f 96/96/96 100/100/100 97/97/97
f 96/96/96 99/99/99 100/100/100
f 100/100/100 84/84/84 81/81/81
f 100/100/100 81/81/81 97/97/97
f 99/99/99 98/98/98 102/102/102
f 102/102/102 98/98/98 101/101/101
f 102/102/102 86/86/86 87/87/87
f 100/100/100 102/102/102 87/87/87
f 99/99/99 102/102/102 100/100/100
f 100/100/100 87/87/87 84/84/84
f 103/103/103 104/104/104 101/101/101
f 101/101/101 104/104/104 102/102/102
f 104/104/104 89/89/89 102/102/102
f 89/89/89 90/90/90 102/102/102
f 102/102/102 90/90/90 86/86/86
f 104/104/104 91/91/91 89/89/89
f 106/106/106 94/94/94 95/95/95
f 107/107/107 106/106/106 95/95/95
f 92/92/92 107/107/107 95/95/95
f 105/105/105 107/107/107 92/92/92
f 109/109/109 108/108/108 106/106/106
f 108/108/108 94/94/94 106/106/106
f 108/108/108 98/98/98 94/94/94
f 109/109/109 106/106/106 107/107/107
f 108/108/108 110/110/110 111/111/111
f 101/101/101 108/108/108 111/111/111
f 98/98/98 108/108/108 101/101/101
f 111/111/111 103/103/103 101/101/101
f 114/114/114 113/113/113 115/115/115
f 112/112/112 114/114/114 115/115/115
f 107/107/107 112/112/112 115/115/115
f 105/105/105 112/112/112 107/107/107
f 116/116/116 117/117/117 113/113/113
f 113/113/113 117/117/117 115/115/115
f 117/117/117 108/108/108 115/115/115
f 108/108/108 109/109/109 115/115/115
f 115/115/115 109/109/109 107/107/107
f 117/117/117 110/110/110 108/108/108
f 120/120/120 119/119/119 114/114/114
f 114/114/114 119/119/119 113/113/113
f 114/114/114 112/112/112 118/118/118
f 114/114/114 118/118/118 120/120/120
f 116/116/116 113/113/113 119/119/119
f 116/116/116 119/119/119 121/121/121
f 124/124/124 125/125/125 122/122/122
f 122/122/122 125/125/125 123/123/123
f 125/125/125 119/119/119 123/123/123
f 119/119/119 120/120/120 123/123/123
f 123/123/123 120/120/120 118/118/118
f 125/125/125 121/121/121 119/119/119
